<?xml version="1.0" encoding="UTF-8" standalone="no"?>
<svg
   width="766pt"
   height="766pt"
   viewBox="0 0 766 766"
   version="1.1"
   id="svg62"
   sodipodi:docname="Tr-C.svg"
   inkscape:version="1.2.1 (9c6d41e410, 2022-07-14)"
   xmlns:inkscape="http://www.inkscape.org/namespaces/inkscape"
   xmlns:sodipodi="http://sodipodi.sourceforge.net/DTD/sodipodi-0.dtd"
   xmlns="http://www.w3.org/2000/svg"
   xmlns:svg="http://www.w3.org/2000/svg">
  <defs
     id="defs66" />
  <sodipodi:namedview
     id="namedview64"
     pagecolor="#505050"
     bordercolor="#eeeeee"
     borderopacity="1"
     inkscape:showpageshadow="0"
     inkscape:pageopacity="0"
     inkscape:pagecheckerboard="0"
     inkscape:deskcolor="#505050"
     inkscape:document-units="pt"
     showgrid="false"
     inkscape:zoom="0.609375"
     inkscape:cx="192"
     inkscape:cy="453.74359"
     inkscape:window-width="1920"
     inkscape:window-height="1026"
     inkscape:window-x="-9"
     inkscape:window-y="16"
     inkscape:window-maximized="1"
     inkscape:current-layer="svg62" />
  <path
     fill="#f9f9f8"
     opacity="1"
     d="m 546.46661,266.04609 c 14.79051,-8.05591 31.63904,-11.89968 48.40749,-12.4362 16.44013,-0.57657 33.1285,2.32228 48.10319,9.24907 11.94772,5.42933 22.29387,14.14187 30.08551,24.65619 8.82466,11.88366 13.81355,26.506 14.25399,41.2885 -16.00771,-0.024 -32.01541,0.016 -48.01511,-0.048 -0.39238,-9.14497 -2.94689,-18.58623 -9.10493,-25.57709 -7.9518,-9.04888 -20.27589,-13.21296 -32.10349,-13.15691 -12.19597,-0.11211 -24.93647,3.57952 -33.68104,12.4362 -6.77465,6.51039 -10.05787,15.87157 -10.6985,25.08862 -3.10705,0.032 -6.2141,0.04 -9.31314,-0.008 0.97696,-8.48833 3.14709,-17.08076 8.14399,-24.14369 6.86274,-10.44224 18.30596,-17.16083 30.33376,-19.8835 13.82957,-2.93889 28.86832,-1.99396 41.56878,4.56447 12.228,6.4223 20.51613,18.89054 23.0386,32.33573 10.06588,0.16015 20.13175,-0.04 30.20563,0.0801 -2.53048,-16.64834 -11.92369,-31.95136 -25.20072,-42.20141 -12.17995,-9.40122 -27.3228,-14.23797 -42.48968,-15.83954 -16.15185,-1.61759 -32.80819,-0.1041 -48.03913,5.73363 -11.33111,4.09201 -21.58117,10.88267 -30.19762,19.2669 -10.9067,10.79459 -18.64229,24.96849 -21.03664,40.19142 -3.42736,0.0881 -6.85472,0.048 -10.28209,0.10411 4.09202,-26.47398 22.64622,-49.3364 46.02115,-61.70053 z"
     id="path21"
     style="stroke-width:0.800786" />
  <path
     fill="#f9f9f8"
     opacity="1"
     d="m 534.9353,286.62628 c 18.00166,-17.47314 44.02719,-24.89643 68.7074,-23.30286 16.44814,0.56855 33.00037,5.43733 46.35748,15.23094 9.06489,6.78265 16.85653,15.62332 21.11671,26.21772 1.69767,4.34026 3.10705,8.82465 3.80373,13.44519 -3.4754,-0.2002 -7.10296,0.3043 -10.48228,-0.27227 -1.96192,-9.70552 -6.35824,-18.97061 -13.06081,-26.31381 -8.8647,-9.84967 -21.23683,-16.09579 -34.11347,-18.78643 -16.9206,-3.48342 -34.93026,-2.6506 -51.13816,3.5715 -12.25202,4.87678 -23.51107,12.98073 -30.79822,24.10365 -5.34124,8.20805 -9.02485,17.50517 -10.51431,27.19467 -3.51545,-0.0641 -7.03891,-0.0561 -10.55436,-0.048 1.97795,-15.51121 9.42525,-30.20563 20.67629,-41.04026 z"
     id="path23"
     style="stroke-width:0.800786" />
  <path
     fill="#f9f9f8"
     opacity="1"
     d="m 73.91503,300.34373 c -0.144142,-11.4192 -0.01602,-22.8384 -0.02402,-34.2496 55.83878,0.0721 111.66955,0.008 167.50833,0.016 -0.11211,11.39518 0.22422,22.79837 -0.0561,34.20155 -19.54717,-0.13613 -39.09435,-0.032 -58.63352,-0.12812 0.032,59.45833 -0.048,118.91666 0.048,178.36698 -15.5913,0.21621 -31.18259,0.18418 -46.77389,0.22422 -1.08106,-0.20821 -2.70665,0.54453 -3.25919,-0.77676 -0.04,-59.25013 -0.0721,-118.50025 -0.0561,-177.75839 -19.58722,0.04 -39.166421,-0.048 -58.753641,0.1041 m 8.648579,-25.69721 c -0.03203,5.71761 -0.008,11.43522 0.08008,17.15283 19.611242,-0.12812 39.214472,-0.21621 58.825712,-0.0641 0.0881,59.44232 -0.18418,118.90064 0.19218,178.34296 10.73854,0.048 21.48508,0.032 32.23162,0.032 -0.056,-59.50638 -0.0801,-119.01275 0.016,-178.51913 19.61124,0.0721 39.22248,-0.024 58.83372,0.16817 -0.024,-5.70961 -0.008,-11.42721 -0.0881,-17.13682 -50.02507,0.0881 -100.05816,0.0721 -150.09124,0.024 z"
     id="path25"
     style="stroke-width:0.800786" />
  <path
     fill="#f9f9f8"
     opacity="1"
     d="m 582.93439,274.24613 c 15.43113,-2.71466 31.82321,-1.4254 46.09321,5.32523 10.91471,5.101 20.54015,13.44519 26.05757,24.25579 2.39434,4.53245 3.89181,9.46529 5.01291,14.44617 -3.61154,0.016 -7.22308,-0.016 -10.82662,0.032 -2.48243,-12.57233 -10.6024,-23.79935 -21.77336,-30.0695 -10.69048,-6.44632 -23.5511,-8.10395 -35.81914,-7.23109 -12.77253,0.93692 -25.39291,5.93382 -34.77011,14.76649 -8.98481,8.23207 -14.278,19.8835 -16.05575,31.81521 -3.57951,-0.008 -7.143,0.008 -10.71451,0.0561 1.80978,-12.57234 7.09496,-24.67221 15.7995,-34.00136 9.66548,-10.41021 23.09466,-16.96064 36.9963,-19.39503 z"
     id="path27"
     style="stroke-width:0.800786" />
  <path
     fill="#f9f9f8"
     opacity="1"
     d="m 86.110994,278.27408 c 23.214776,0.032 46.421546,-0.016 69.628306,0.04 -0.19218,62.71753 0.024,125.43506 -0.048,188.15258 -3.45138,0.032 -6.90277,0.0481 -10.35415,0.0801 0.0561,-59.53841 -0.032,-119.07681 0.024,-178.60721 -19.73937,0.33633 -39.49475,0.23222 -59.242123,0.024 -0.04805,-3.23518 -0.02402,-6.46234 -0.008,-9.68951 z"
     id="path29"
     style="stroke-width:0.800786" />
  <path
     fill="#f9f9f8"
     opacity="1"
     d="m 159.79128,278.2901 c 23.11868,-0.0641 46.24537,-0.008 69.37205,-0.0721 0.008,3.25119 0.008,6.50238 0.008,9.75357 -19.6753,0.28828 -39.34259,0.0721 -59.00989,-0.016 -0.15215,59.51438 0,119.02877 -0.0801,178.54315 -3.41134,0.024 -6.8307,0 -10.24204,-0.008 0.016,-62.73354 -0.008,-125.46709 -0.048,-188.20064 z"
     id="path31"
     style="stroke-width:0.800786" />
  <path
     fill="#f9f9f8"
     opacity="1"
     d="m 317.06557,325.20012 c 12.61237,-3.9719 26.33783,-3.69162 38.9422,0.14414 -1.29727,12.11589 -2.78673,24.21576 -4.31623,36.30762 -8.44829,-3.40334 -17.75342,-5.32522 -26.82632,-3.68361 -9.47329,1.56153 -18.61827,6.95081 -23.40696,15.44715 -3.68362,6.08597 -5.30921,13.22097 -5.42933,20.2839 -0.008,28.28374 0,56.5755 -0.024,84.85925 -14.96669,0.36035 -29.94938,0.15214 -44.91607,0.15214 -0.0961,-0.23222 -0.28828,-0.68867 -0.39238,-0.9209 -0.008,-50.36941 -0.0881,-100.74683 0.04,-151.12425 11.99577,0.0961 23.99954,0 35.99531,0.15214 0.024,6.33422 -0.04,12.67644 0.1041,19.01867 8.28012,-9.08091 18.29795,-17.07276 30.22966,-20.63625 m -11.22702,14.99872 c -9.76958,6.68656 -18.41806,15.47117 -23.57512,26.22572 -1.44142,-0.0641 -2.87482,-0.12812 -4.30823,-0.18418 0.16016,-10.37017 0.008,-20.74034 0.0961,-31.10251 -3.85177,0.032 -7.69555,0.032 -11.53131,0.11211 -2.36232,-0.048 -4.72463,-0.11211 -7.08695,-0.1041 -0.43242,4.83674 -0.12813,9.71353 -0.21621,14.56629 0.34434,40.14338 0.12812,80.28676 0.18418,120.42213 9.28911,0.016 18.57822,0.008 27.86734,0.0721 -0.0961,-22.54211 0.024,-45.08423 -0.0561,-67.61833 0.0561,-5.90179 -0.32832,-11.85163 0.78477,-17.67334 1.59356,-8.14399 4.86878,-16.2079 10.78658,-22.17375 11.45124,-12.17995 29.72516,-16.57626 45.74087,-12.50026 0.7127,-6.15004 1.48146,-12.29206 2.30627,-18.42608 -14.10184,-2.69865 -29.10856,0.33633 -40.99222,8.38423 z"
     id="path33"
     style="stroke-width:0.800786" />
  <path
     fill="#f9f9f8"
     opacity="1"
     d="m 319.15562,336.81952 c 7.72758,-2.30626 15.88758,-2.17814 23.84739,-1.57755 0.0561,3.41936 -0.74473,6.79066 -0.84082,10.21002 -12.01179,-1.92189 -24.88041,0.29629 -34.9623,7.30316 -11.3151,7.38325 -18.43408,20.02765 -20.81242,33.15252 -1.03301,7.10297 -0.7127,14.29403 -0.76875,21.44504 0.032,19.95558 0.04,39.91116 0.024,59.85872 -2.97091,-0.008 -5.94183,-0.016 -8.91274,0.024 0.008,-23.15071 -0.008,-46.30943 0,-69.46815 -0.20821,-12.82058 3.31525,-25.66518 9.81763,-36.7 7.51137,-11.60339 19.35499,-20.34796 32.60799,-24.24779 z"
     id="path35"
     style="stroke-width:0.800786" />
  <path
     fill="#f9f9f8"
     opacity="1"
     d="m 486.57586,340.81544 c 0.54453,-3.02697 3.38732,-5.63753 6.56644,-5.31722 2.25821,-0.0801 4.00393,1.55353 5.3012,3.21115 12.1319,-0.0801 24.25579,-0.44043 36.3877,-0.33633 11.65143,11.93972 23.64719,23.53509 35.38671,35.38672 -11.62741,11.46725 -23.17473,23.02258 -34.68202,34.60995 -12.30007,-0.0721 -24.60014,0.1041 -36.89219,-0.14414 -1.40939,1.67364 -3.16311,3.42736 -5.51742,3.38732 -4.1881,0.38438 -7.84769,-4.23615 -6.28616,-8.20805 1.06504,-3.42736 5.46936,-5.50941 8.68051,-3.65158 1.24923,0.59258 2.00997,1.87384 3.21115,2.5465 10.42623,-0.0721 20.86847,-0.0721 31.30271,-0.0641 0.94493,-0.13613 2.20216,0.24825 2.91486,-0.62461 9.2731,-9.32915 18.70635,-18.49014 27.95542,-27.84331 -9.90571,-9.73756 -19.61123,-19.69132 -29.62105,-29.32477 -10.95475,0.0961 -21.9175,-0.016 -32.87225,0.0561 -1.2172,1.43341 -2.59455,3.02697 -4.57249,3.27521 -3.88381,0.76075 -7.97582,-3.00294 -7.26312,-6.95882 m 5.45335,-1.81779 c -3.08303,0.57657 -2.05802,5.84574 1.1211,4.98089 3.39533,-0.24024 2.08204,-6.0139 -1.1211,-4.98089 m -0.89688,64.15094 c -1.76974,1.18516 -1.05704,4.51643 1.18516,4.65256 1.58556,0.44043 3.21115,-1.23321 2.81877,-2.81075 -0.11211,-1.84182 -2.53049,-2.97093 -4.00393,-1.84181 z"
     id="path37"
     style="stroke-width:0.800786" />
  <path
     fill="#f9f9f8"
     opacity="1"
     d="m 262.9725,338.18086 c 3.39533,0.04 6.79066,-0.024 10.18599,-0.016 0.0561,43.00218 -0.0881,86.00437 -0.04,129.00655 -3.38732,0 -6.77464,0 -10.15396,0.024 0.11211,-43.01019 0,-86.01238 0.008,-129.01457 z"
     id="path39"
     style="stroke-width:0.800786" />
  <path
     fill="#f9f9f8"
     opacity="1"
     d="m 544.40058,338.14882 c 3.12307,0.14415 6.33422,-0.39238 9.40923,0.12012 12.05984,11.84362 23.99154,23.83138 36.16348,35.56289 -12.00377,11.68346 -23.51106,23.90345 -35.87519,35.20253 -2.96291,-0.29629 -5.94984,-0.24023 -8.92075,-0.16816 11.58736,-11.86765 23.73528,-23.17474 35.24257,-35.13047 -12.09987,-11.77154 -23.99154,-23.74329 -36.01934,-35.58691 z"
     id="path41"
     style="stroke-width:0.800786" />
  <path
     fill="#f9f9f8"
     opacity="1"
     d="m 486.60789,358.56886 c -0.42442,-3.65159 2.77873,-7.41528 6.55843,-7.135 2.26623,-0.0641 4.04397,1.61758 5.27718,3.34728 11.42721,-0.1041 22.86243,0.0801 34.28964,-0.14414 0.032,1.98595 0.024,3.9799 0.016,5.97386 -11.34713,-0.04 -22.68625,-0.0881 -34.03338,0.056 -1.34532,1.70568 -3.22717,3.34729 -5.54945,3.21916 -3.12306,0.18418 -6.06194,-2.25021 -6.55843,-5.31721 m 4.55647,-2.77072 c -1.28126,0.96895 -1.17716,3.40334 0.38438,4.09201 1.54551,1.36934 3.81974,-0.40039 3.74767,-2.19415 0.2002,-2.05001 -2.69864,-3.41135 -4.13205,-1.89786 z"
     id="path43"
     style="stroke-width:0.800786" />
  <path
     fill="#f9f9f8"
     opacity="1"
     d="m 380.43173,366.04819 c 27.28276,-0.0641 54.55752,-0.024 81.84029,0.008 0.0641,10.24205 0.0801,20.4921 -0.008,30.73415 -27.27476,-0.0801 -54.54952,-0.0961 -81.82427,0.13613 -0.12813,-10.2981 -0.024,-20.58819 -0.008,-30.87829 m 8.31215,8.2561 c -0.032,4.7887 0.008,9.58541 -0.024,14.3741 21.67727,-0.0881 43.36254,-0.1041 65.0398,-0.0641 0.0641,-4.80471 0.0641,-9.60142 0.008,-14.40613 -21.67726,0.0801 -43.34652,-0.008 -65.02379,0.0961 z"
     id="path45"
     style="stroke-width:0.800786" />
  <path
     fill="#f9f9f8"
     opacity="1"
     d="m 486.90418,372.83885 c 0.33633,-3.09904 3.21916,-5.4053 6.23011,-5.67757 2.49845,0.0721 4.43635,1.87384 5.78968,3.81975 17.67334,-0.13613 35.35468,-0.0801 53.03603,-0.056 -0.032,1.84981 -0.048,3.70763 -0.0561,5.56546 -17.77743,0.032 -35.54687,-0.016 -53.32431,-0.024 -1.20918,1.84181 -3.18712,3.34729 -5.46936,3.35529 -3.57951,0.15215 -6.81469,-3.41935 -6.20609,-6.98285 m 5.093,-1.72969 c -0.97696,0.40039 -1.91388,1.49747 -1.57755,2.62657 -0.12813,2.57053 4.25217,3.24319 4.86877,0.74473 0.81681,-1.97794 -1.33731,-4.1881 -3.29122,-3.3713 z"
     id="path47"
     style="stroke-width:0.800786" />
  <path
     fill="#f9f9f8"
     opacity="1"
     d="m 391.27437,376.77872 c 20.01964,-0.0641 40.03928,-0.016 60.05891,-0.024 0.008,3.13908 0.032,6.29417 0.10411,9.44126 -20.0757,-0.12813 -40.14338,0.056 -60.21908,0 0.0481,-3.14709 0.0641,-6.27816 0.0561,-9.41724 z"
     id="path49"
     style="stroke-width:0.800786" />
  <path
     fill="#f9f9f8"
     opacity="1"
     d="m 487.59286,392.88252 c -2.89885,-3.97991 0.87285,-9.96178 5.58147,-9.77759 2.32228,-0.032 3.92385,1.81778 5.46136,3.29122 11.36315,0.0881 22.72629,-0.04 34.08944,-0.016 0.0641,1.98595 0.0961,3.97189 0.1041,5.95784 -11.44322,0.0641 -22.89446,-0.12812 -34.33768,0.0801 -2.09806,4.18811 -8.4563,4.3803 -10.89869,0.46446 m 4.34826,-5.82972 c -3.07502,0.98496 -1.23321,5.99788 1.73771,4.78069 2.98693,-1.00899 1.28125,-6.02992 -1.73771,-4.78069 z"
     id="path51"
     style="stroke-width:0.800786" />
  <path
     fill="#f9f9f8"
     opacity="1"
     d="m 639.2136,409.38671 c 16.03172,-0.024 32.07146,-0.04 48.10319,-0.008 -0.62462,14.63836 -4.82874,29.18063 -12.99675,41.40862 -11.80358,17.90557 -31.599,29.30075 -52.30732,33.68104 -25.84936,5.37327 -53.73271,2.12209 -77.15569,-10.29009 -21.2048,-11.40319 -38.64591,-31.27869 -44.01918,-55.07803 3.43537,-0.008 6.88675,0.024 10.33013,0.008 6.94281,26.53003 29.64508,46.95807 55.41436,54.87784 15.62333,4.58049 32.27967,5.61351 48.36745,3.13908 13.84559,-2.14611 27.28277,-7.48735 38.37365,-16.09579 13.30905,-10.53033 22.35793,-26.47397 24.24778,-43.37055 -9.93774,0.12012 -19.8835,-0.2082 -29.81324,0.18418 -2.13009,11.54733 -7.53539,22.83841 -16.86455,30.2697 -9.04887,7.15101 -20.74034,10.12193 -32.08747,10.73853 -13.58133,0.24825 -27.73922,-3.43537 -38.17345,-12.45221 -8.41626,-6.75863 -13.97371,-16.88857 -15.23094,-27.60308 2.97892,-0.016 5.96585,-0.04 8.95278,-0.0961 1.15313,5.9098 3.17912,11.8196 7.06293,16.52822 7.60746,9.50532 19.71534,14.63836 31.69509,15.34305 12.32409,0.90489 25.60112,-2.27423 34.63398,-11.09088 8.03988,-7.7436 11.48326,-19.14678 11.46725,-30.09352 z"
     id="path53"
     style="stroke-width:0.800786" />
  <path
     fill="#f9f9f8"
     opacity="1"
     d="m 514.53929,419.04418 c 3.61955,-0.016 7.25512,0.016 10.88268,-0.0961 2.81075,11.81959 9.15297,22.71828 18.04169,30.99841 12.70046,12.06784 30.12556,18.09775 47.36647,19.4751 11.65143,0.69669 23.53509,-0.42441 34.61796,-4.20412 10.97076,-3.85979 21.29289,-10.34615 28.3398,-19.73136 5.78168,-7.36723 9.49732,-16.32001 10.74655,-25.59311 3.43537,0.008 6.87074,-0.024 10.31411,0.016 -1.3293,11.26705 -5.95784,22.16574 -13.34108,30.80622 -6.78266,8.09594 -15.47919,14.56629 -25.16069,18.79444 -14.22195,6.3182 -30.06949,8.39223 -45.52466,7.38324 -16.83251,-0.78477 -33.68104,-5.84573 -47.46256,-15.6954 -14.22996,-9.95376 -25.0806,-25.10462 -28.82027,-42.15335 z"
     id="path55"
     style="stroke-width:0.800786" />
  <path
     fill="#f9f9f8"
     opacity="1"
     d="m 530.4509,418.94809 c 3.86779,0.0961 7.73559,0.04 11.61139,-0.032 2.5465,11.6274 9.18501,22.41398 18.77842,29.53297 11.21901,8.53637 25.67319,12.10788 39.62287,11.4192 13.20496,-0.72871 26.53003,-5.44534 36.16348,-14.71844 7.07094,-6.65453 11.25904,-15.83153 13.19694,-25.23275 3.49944,0.024 7.00688,0.016 10.51432,0.04 -1.82579,11.17096 -7.06293,21.78137 -15.20692,29.69313 -11.23502,10.96275 -26.85835,16.48817 -42.29749,17.76142 -13.01277,1.07305 -26.20171,-1.55352 -38.08536,-6.85472 -11.90769,-5.64554 -22.26184,-14.8786 -28.33981,-26.65015 -2.58653,-4.73264 -4.26818,-9.86568 -5.95784,-14.95867 z"
     id="path57"
     style="stroke-width:0.800786" />
</svg>
