<?xml version="1.0" encoding="UTF-8" standalone="no"?>
<svg
   width="766.086pt"
   height="291.4946pt"
   viewBox="0 0 766.086 291.4946"
   version="1.1"
   id="svg62"
   sodipodi:docname="Tr-C.svg"
   inkscape:version="1.2.1 (9c6d41e410, 2022-07-14)"
   xmlns:inkscape="http://www.inkscape.org/namespaces/inkscape"
   xmlns:sodipodi="http://sodipodi.sourceforge.net/DTD/sodipodi-0.dtd"
   xmlns="http://www.w3.org/2000/svg"
   xmlns:svg="http://www.w3.org/2000/svg">
  <defs
     id="defs66" />
  <sodipodi:namedview
     id="namedview64"
     pagecolor="#505050"
     bordercolor="#eeeeee"
     borderopacity="1"
     inkscape:showpageshadow="0"
     inkscape:pageopacity="0"
     inkscape:pagecheckerboard="0"
     inkscape:deskcolor="#505050"
     inkscape:document-units="pt"
     showgrid="false"
     inkscape:zoom="0.609375"
     inkscape:cx="326.5641"
     inkscape:cy="59.897436"
     inkscape:window-width="1920"
     inkscape:window-height="1026"
     inkscape:window-x="-9"
     inkscape:window-y="16"
     inkscape:window-maximized="1"
     inkscape:current-layer="svg62" />
  <path
     fill="#f9f9f8"
     opacity="1"
     d="m 590.19601,15.619195 c 18.47,-10.0599997 39.51,-14.85999971 60.45,-15.52999971 20.53,-0.72 41.37,2.90000001 60.07,11.54999971 14.92,6.78 27.84,17.66 37.57,30.79 11.02,14.84 17.25,33.1 17.8,51.56 -19.99,-0.03 -39.98,0.02 -59.96,-0.06 -0.49,-11.42 -3.68,-23.21 -11.37,-31.94 -9.93,-11.3 -25.32,-16.5 -40.09,-16.43 -15.23,-0.14 -31.14,4.47 -42.06,15.53 -8.46,8.13 -12.56,19.82 -13.36,31.33 -3.88,0.04 -7.76,0.05 -11.63,-0.01 1.22,-10.6 3.93,-21.33 10.17,-30.15 8.57,-13.04 22.86,-21.43 37.88,-24.83 17.27,-3.67 36.05,-2.49 51.91,5.7 15.27,8.02 25.62,23.59 28.77,40.38 12.57,0.2 25.14,-0.05 37.72,0.1 -3.16,-20.79 -14.89,-39.9 -31.47,-52.7 -15.21,-11.74 -34.12,-17.78 -53.06,-19.78 -20.17,-2.0199997 -40.97,-0.13 -59.99,7.16 -14.15,5.11 -26.95,13.59 -37.71,24.06 -13.62,13.48 -23.28,31.18 -26.27,50.19 -4.28,0.11 -8.56,0.06 -12.84,0.13 5.11,-33.06 28.28,-61.61 57.47,-77.05 z"
     id="path21" />
  <path
     fill="#f9f9f8"
     opacity="1"
     d="m 575.79601,41.319195 c 22.48,-21.82 54.98,-31.09 85.8,-29.1 20.54,0.71 41.21,6.79 57.89,19.02 11.32,8.47 21.05,19.51 26.37,32.74 2.12,5.42 3.88,11.02 4.75,16.79 -4.34,-0.25 -8.87,0.38 -13.09,-0.34 -2.45,-12.12 -7.94,-23.69 -16.31,-32.86 -11.07,-12.3 -26.52,-20.1 -42.6,-23.46 -21.13,-4.35 -43.62,-3.31 -63.86,4.46 -15.3,6.09 -29.36,16.21 -38.46,30.1 -6.67,10.25 -11.27,21.86 -13.13,33.96 -4.39,-0.08 -8.79,-0.07 -13.18,-0.06 2.47,-19.37 11.77,-37.72 25.82,-51.25 z"
     id="path23" />
  <path
     fill="#f9f9f8"
     opacity="1"
     d="m 0.08601065,58.449195 c -0.18,-14.26 -0.02,-28.52 -0.03,-42.77 69.73000035,0.09 139.44999935,0.01 209.17999935,0.02 -0.14,14.23 0.28,28.47 -0.07,42.71 -24.41,-0.17 -48.82,-0.04 -73.22,-0.16 0.04,74.250005 -0.06,148.500005 0.06,222.740005 -19.47,0.27 -38.939999,0.23 -58.409999,0.28 -1.35,-0.26 -3.38,0.68 -4.07,-0.97 -0.05,-73.99 -0.09,-147.98 -0.07,-221.980005 -24.46,0.05 -48.91,-0.06 -73.37000035,0.13 m 10.80000035,-32.09 c -0.04,7.14 -0.01,14.28 0.1,21.42 24.49,-0.16 48.97,-0.27 73.46,-0.08 0.11,74.230005 -0.23,148.480005 0.24,222.710005 13.41,0.06 26.829999,0.04 40.249999,0.04 -0.07,-74.31 -0.1,-148.62 0.02,-222.930005 24.49,0.09 48.98,-0.03 73.47,0.21 -0.03,-7.13 -0.01,-14.27 -0.11,-21.4 -62.47,0.11 -124.949999,0.09 -187.429999,0.03 z"
     id="path25" />
  <path
     fill="#f9f9f8"
     opacity="1"
     d="m 635.73601,25.859195 c 19.27,-3.39 39.74,-1.78 57.56,6.65 13.63,6.37 25.65,16.79 32.54,30.29 2.99,5.66 4.86,11.82 6.26,18.04 -4.51,0.02 -9.02,-0.02 -13.52,0.04 -3.1,-15.7 -13.24,-29.72 -27.19,-37.55 -13.35,-8.05 -29.41,-10.12 -44.73,-9.03 -15.95,1.17 -31.71,7.41 -43.42,18.44 -11.22,10.28 -17.83,24.83 -20.05,39.73 -4.47,-0.01 -8.92,0.01 -13.38,0.07 2.26,-15.7 8.86,-30.81 19.73,-42.46 12.07,-13 28.84,-21.18 46.2,-24.22 z"
     id="path27" />
  <path
     fill="#f9f9f8"
     opacity="1"
     d="m 15.316011,30.889195 c 28.99,0.04 57.97,-0.02 86.949999,0.05 -0.24,78.320005 0.03,156.640005 -0.06,234.960005 -4.309999,0.04 -8.619999,0.06 -12.929999,0.1 0.07,-74.35 -0.04,-148.7 0.03,-223.040005 -24.65,0.42 -49.32,0.29 -73.98,0.03 -0.06,-4.04 -0.03,-8.07 -0.01,-12.1 z"
     id="path29" />
  <path
     fill="#f9f9f8"
     opacity="1"
     d="m 107.32601,30.909195 c 28.87,-0.08 57.75,-0.01 86.63,-0.09 0.01,4.06 0.01,8.12 0.01,12.18 -24.57,0.36 -49.13,0.09 -73.69,-0.02 -0.19,74.320005 0,148.640005 -0.1,222.960005 -4.26,0.03 -8.53,0 -12.79,-0.01 0.02,-78.34 -0.01,-156.68 -0.06,-235.020005 z"
     id="path31" />
  <path
     fill="#f9f9f8"
     opacity="1"
     d="m 303.72601,89.489195 c 15.75,-4.96 32.89,-4.61 48.63,0.18 -1.62,15.130005 -3.48,30.240005 -5.39,45.340005 -10.55,-4.25 -22.17,-6.65 -33.5,-4.6 -11.83,1.95 -23.25,8.68 -29.23,19.29 -4.6,7.6 -6.63,16.51 -6.78,25.33 -0.01,35.32 0,70.65 -0.03,105.97 -18.69,0.45 -37.4,0.19 -56.09,0.19 -0.12,-0.29 -0.36,-0.86 -0.49,-1.15 -0.01,-62.9 -0.11,-125.81 0.05,-188.720005 14.98,0.12 29.97,0 44.95,0.19 0.03,7.91 -0.05,15.830005 0.13,23.750005 10.34,-11.34 22.85,-21.320005 37.75,-25.770005 m -14.02,18.730005 c -12.2,8.35 -23,19.32 -29.44,32.75 -1.8,-0.08 -3.59,-0.16 -5.38,-0.23 0.2,-12.95 0.01,-25.9 0.12,-38.84 -4.81,0.04 -9.61,0.04 -14.4,0.14 -2.95,-0.06 -5.9,-0.14 -8.85,-0.13 -0.54,6.04 -0.16,12.13 -0.27,18.19 0.43,50.13 0.16,100.26 0.23,150.38 11.6,0.02 23.2,0.01 34.8,0.09 -0.12,-28.15 0.03,-56.3 -0.07,-84.44 0.07,-7.37 -0.41,-14.8 0.98,-22.07 1.99,-10.17 6.08,-20.24 13.47,-27.69 14.3,-15.21 37.12,-20.7 57.12,-15.61 0.89,-7.68 1.85,-15.35 2.88,-23.010005 -17.61,-3.37 -36.35,0.42 -51.19,10.470005 z"
     id="path33" />
  <path
     fill="#f9f9f8"
     opacity="1"
     d="m 306.33601,103.9992 c 9.65,-2.88 19.84,-2.72 29.78,-1.97 0.07,4.27 -0.93,8.48 -1.05,12.75 -15,-2.4 -31.07,0.37 -43.66,9.12 -14.13,9.22 -23.02,25.01 -25.99,41.4 -1.29,8.87 -0.89,17.85 -0.96,26.78 0.04,24.92 0.05,49.84 0.03,74.75 -3.71,-0.01 -7.42,-0.02 -11.13,0.03 0.01,-28.91 -0.01,-57.83 0,-86.75 -0.26,-16.01 4.14,-32.05 12.26,-45.83 9.38,-14.49 24.17,-25.41 40.72,-30.28 z"
     id="path35" />
  <path
     fill="#f9f9f8"
     opacity="1"
     d="m 515.40601,108.9892 c 0.68,-3.78 4.23,-7.04 8.2,-6.64 2.82,-0.1 5,1.94 6.62,4.01 15.15,-0.1 30.29,-0.55 45.44,-0.42 14.55,14.91 29.53,29.39 44.19,44.19 -14.52,14.32 -28.94,28.75 -43.31,43.22 -15.36,-0.09 -30.72,0.13 -46.07,-0.18 -1.76,2.09 -3.95,4.28 -6.89,4.23 -5.23,0.48 -9.8,-5.29 -7.85,-10.25 1.33,-4.28 6.83,-6.88 10.84,-4.56 1.56,0.74 2.51,2.34 4.01,3.18 13.02,-0.09 26.06,-0.09 39.09,-0.08 1.18,-0.17 2.75,0.31 3.64,-0.78 11.58,-11.65 23.36,-23.09 34.91,-34.77 -12.37,-12.16 -24.49,-24.59 -36.99,-36.62 -13.68,0.12 -27.37,-0.02 -41.05,0.07 -1.52,1.79 -3.24,3.78 -5.71,4.09 -4.85,0.95 -9.96,-3.75 -9.07,-8.69 m 6.81,-2.27 c -3.85,0.72 -2.57,7.3 1.4,6.22 4.24,-0.3 2.6,-7.51 -1.4,-6.22 m -1.12,80.11 c -2.21,1.48 -1.32,5.64 1.48,5.81 1.98,0.55 4.01,-1.54 3.52,-3.51 -0.14,-2.3 -3.16,-3.71 -5,-2.3 z"
     id="path37" />
  <path
     fill="#f9f9f8"
     opacity="1"
     d="m 236.17601,105.6992 c 4.24,0.05 8.48,-0.03 12.72,-0.02 0.07,53.7 -0.11,107.4 -0.05,161.1 -4.23,0 -8.46,0 -12.68,0.03 0.14,-53.71 0,-107.41 0.01,-161.11 z"
     id="path39" />
  <path
     fill="#f9f9f8"
     opacity="1"
     d="m 587.61601,105.6592 c 3.9,0.18 7.91,-0.49 11.75,0.15 15.06,14.79 29.96,29.76 45.16,44.41 -14.99,14.59 -29.36,29.85 -44.8,43.96 -3.7,-0.37 -7.43,-0.3 -11.14,-0.21 14.47,-14.82 29.64,-28.94 44.01,-43.87 -15.11,-14.7 -29.96,-29.65 -44.98,-44.44 z"
     id="path41" />
  <path
     fill="#f9f9f8"
     opacity="1"
     d="m 515.44601,131.1592 c -0.53,-4.56 3.47,-9.26 8.19,-8.91 2.83,-0.08 5.05,2.02 6.59,4.18 14.27,-0.13 28.55,0.1 42.82,-0.18 0.04,2.48 0.03,4.97 0.02,7.46 -14.17,-0.05 -28.33,-0.11 -42.5,0.07 -1.68,2.13 -4.03,4.18 -6.93,4.02 -3.9,0.23 -7.57,-2.81 -8.19,-6.64 m 5.69,-3.46 c -1.6,1.21 -1.47,4.25 0.48,5.11 1.93,1.71 4.77,-0.5 4.68,-2.74 0.25,-2.56 -3.37,-4.26 -5.16,-2.37 z"
     id="path43" />
  <path
     fill="#f9f9f8"
     opacity="1"
     d="m 382.85601,140.4992 c 34.07,-0.08 68.13,-0.03 102.2,0.01 0.08,12.79 0.1,25.59 -0.01,38.38 -34.06,-0.1 -68.12,-0.12 -102.18,0.17 -0.16,-12.86 -0.03,-25.71 -0.01,-38.56 m 10.38,10.31 c -0.04,5.98 0.01,11.97 -0.03,17.95 27.07,-0.11 54.15,-0.13 81.22,-0.08 0.08,-6 0.08,-11.99 0.01,-17.99 -27.07,0.1 -54.13,-0.01 -81.2,0.12 z"
     id="path45" />
  <path
     fill="#f9f9f8"
     opacity="1"
     d="m 515.81601,148.9792 c 0.42,-3.87 4.02,-6.75 7.78,-7.09 3.12,0.09 5.54,2.34 7.23,4.77 22.07,-0.17 44.15,-0.1 66.23,-0.07 -0.04,2.31 -0.06,4.63 -0.07,6.95 -22.2,0.04 -44.39,-0.02 -66.59,-0.03 -1.51,2.3 -3.98,4.18 -6.83,4.19 -4.47,0.19 -8.51,-4.27 -7.75,-8.72 m 6.36,-2.16 c -1.22,0.5 -2.39,1.87 -1.97,3.28 -0.16,3.21 5.31,4.05 6.08,0.93 1.02,-2.47 -1.67,-5.23 -4.11,-4.21 z"
     id="path47" />
  <path
     fill="#f9f9f8"
     opacity="1"
     d="m 396.39601,153.8992 c 25,-0.08 50,-0.02 75,-0.03 0.01,3.92 0.04,7.86 0.13,11.79 -25.07,-0.16 -50.13,0.07 -75.2,0 0.06,-3.93 0.08,-7.84 0.07,-11.76 z"
     id="path49" />
  <path
     fill="#f9f9f8"
     opacity="1"
     d="m 516.67601,174.0092 c -3.62,-4.97 1.09,-12.44 6.97,-12.21 2.9,-0.04 4.9,2.27 6.82,4.11 14.19,0.11 28.38,-0.05 42.57,-0.02 0.08,2.48 0.12,4.96 0.13,7.44 -14.29,0.08 -28.59,-0.16 -42.88,0.1 -2.62,5.23 -10.56,5.47 -13.61,0.58 m 5.43,-7.28 c -3.84,1.23 -1.54,7.49 2.17,5.97 3.73,-1.26 1.6,-7.53 -2.17,-5.97 z"
     id="path51" />
  <path
     fill="#f9f9f8"
     opacity="1"
     d="m 706.01601,194.6192 c 20.02,-0.03 40.05,-0.05 60.07,-0.01 -0.78,18.28 -6.03,36.44 -16.23,51.71 -14.74,22.36 -39.46,36.59 -65.32,42.06 -32.28,6.71 -67.1,2.65 -96.35,-12.85 -26.48,-14.24 -48.26,-39.06 -54.97,-68.78 4.29,-0.01 8.6,0.03 12.9,0.01 8.67,33.13 37.02,58.64 69.2,68.53 19.51,5.72 40.31,7.01 60.4,3.92 17.29,-2.68 34.07,-9.35 47.92,-20.1 16.62,-13.15 27.92,-33.06 30.28,-54.16 -12.41,0.15 -24.83,-0.26 -37.23,0.23 -2.66,14.42 -9.41,28.52 -21.06,37.8 -11.3,8.93 -25.9,12.64 -40.07,13.41 -16.96,0.31 -34.64,-4.29 -47.67,-15.55 -10.51,-8.44 -17.45,-21.09 -19.02,-34.47 3.72,-0.02 7.45,-0.05 11.18,-0.12 1.44,7.38 3.97,14.76 8.82,20.64 9.5,11.87 24.62,18.28 39.58,19.16 15.39,1.13 31.97,-2.84 43.25,-13.85 10.04,-9.67 14.34,-23.91 14.32,-37.58 z"
     id="path53" />
  <path
     fill="#f9f9f8"
     opacity="1"
     d="m 550.32601,206.6792 c 4.52,-0.02 9.06,0.02 13.59,-0.12 3.51,14.76 11.43,28.37 22.53,38.71 15.86,15.07 37.62,22.6 59.15,24.32 14.55,0.87 29.39,-0.53 43.23,-5.25 13.7,-4.82 26.59,-12.92 35.39,-24.64 7.22,-9.2 11.86,-20.38 13.42,-31.96 4.29,0.01 8.58,-0.03 12.88,0.02 -1.66,14.07 -7.44,27.68 -16.66,38.47 -8.47,10.11 -19.33,18.19 -31.42,23.47 -17.76,7.89 -37.55,10.48 -56.85,9.22 -21.02,-0.98 -42.06,-7.3 -59.27,-19.6 -17.77,-12.43 -31.32,-31.35 -35.99,-52.64 z"
     id="path55" />
  <path
     fill="#f9f9f8"
     opacity="1"
     d="m 570.19601,206.5592 c 4.83,0.12 9.66,0.05 14.5,-0.04 3.18,14.52 11.47,27.99 23.45,36.88 14.01,10.66 32.06,15.12 49.48,14.26 16.49,-0.91 33.13,-6.8 45.16,-18.38 8.83,-8.31 14.06,-19.77 16.48,-31.51 4.37,0.03 8.75,0.02 13.13,0.05 -2.28,13.95 -8.82,27.2 -18.99,37.08 -14.03,13.69 -33.54,20.59 -52.82,22.18 -16.25,1.34 -32.72,-1.94 -47.56,-8.56 -14.87,-7.05 -27.8,-18.58 -35.39,-33.28 -3.23,-5.91 -5.33,-12.32 -7.44,-18.68 z"
     id="path57" />
</svg>
